# Blender v2.83.2 OBJ File: ''
# www.blender.org
mtllib creeperaaa_1.mtl
o Plane.001
v -12.598804 -5.467129 -0.828212
v -10.598804 -5.467129 -0.828212
v -10.598804 -5.467129 -0.946705
v -12.598804 -5.467129 -0.946705
vt 0.000000 0.000000
vt 1.000000 0.000000
vt 1.000000 1.000000
vt 0.000000 1.000000
vn 0.0000 1.0000 0.0000
usemtl None
s off
f 1/1/1 2/2/1 3/3/1 4/4/1
o creeper_d1
v -1.414215 3.688185 4.242639
v -4.242641 3.688186 1.414211
v 1.414212 3.688187 -4.242642
v 4.242640 3.688187 -1.414216
v -1.414214 15.688185 4.242643
v 4.242640 15.688187 -1.414211
v 1.414214 15.688188 -4.242637
v -4.242640 15.688187 1.414217
v 0.000000 15.688183 5.656858
v -5.656854 15.688187 0.000003
v 0.000000 15.688188 -5.656851
v 5.656855 15.688187 0.000003
v 0.000001 23.688185 5.656861
v 5.656856 23.688185 0.000006
v 0.000001 23.688189 -5.656847
v -5.656853 23.688187 0.000006
v 1.414212 -2.311816 7.071063
v -1.414215 -2.311815 4.242636
v 1.414212 -2.311814 1.414209
v 4.242639 -2.311816 4.242636
v 1.414213 3.688183 7.071066
v 4.242640 3.688184 4.242639
v 1.414212 3.688186 1.414212
v -1.414214 3.688185 4.242639
v 4.242639 -2.311816 4.242636
v 1.414212 -2.311814 1.414209
v 4.242639 -2.311814 -1.414218
v 7.071066 -2.311815 1.414209
v 4.242640 3.688184 4.242639
v 7.071067 3.688185 1.414212
v 4.242640 3.688187 -1.414215
v 1.414213 3.688186 1.414212
v -4.242642 -2.311814 1.414209
v -7.071069 -2.311813 -1.414218
v -4.242642 -2.311811 -4.242645
v -1.414215 -2.311814 -1.414218
v -4.242641 3.688186 1.414212
v -1.414214 3.688187 -1.414215
v -4.242641 3.688188 -4.242642
v -7.071068 3.688188 -1.414215
v -1.414215 -2.311814 -1.414218
v -4.242642 -2.311811 -4.242645
v -1.414215 -2.311811 -7.071072
v 1.414212 -2.311812 -4.242645
v -1.414214 3.688187 -1.414215
v 1.414213 3.688187 -4.242642
v -1.414214 3.688190 -7.071069
v -4.242641 3.688188 -4.242642
vt 0.437500 0.687500
vt 0.437500 0.750000
vt 0.562500 0.750000
vt 0.562710 0.687500
vt 0.312500 0.687500
vt 0.437500 0.687500
vt 0.437500 0.750000
vt 0.312500 0.750000
vt 0.312500 0.500000
vt 0.437500 0.500000
vt 0.500000 0.500000
vt 0.500000 0.687500
vt 0.625000 0.500000
vt 0.625000 0.687500
vt 0.250000 0.500000
vt 0.250000 0.687500
vt 0.250000 0.875000
vt 0.250000 1.000000
vt 0.375000 1.000000
vt 0.375000 0.875000
vt 0.125000 0.875000
vt 0.250000 0.875000
vt 0.250000 1.000000
vt 0.125000 1.000000
vt 0.125000 0.750000
vt 0.250000 0.750000
vt 0.375000 0.750000
vt 0.375000 0.875000
vt 0.500000 0.750000
vt 0.500000 0.875000
vt 0.000000 0.750000
vt 0.000000 0.875000
vt 0.125000 0.687500
vt 0.125000 0.750000
vt 0.187500 0.750000
vt 0.187500 0.687500
vt 0.062500 0.687500
vt 0.125000 0.687500
vt 0.125000 0.750000
vt 0.062500 0.750000
vt 0.062500 0.593816
vt 0.125000 0.593816
vt 0.187500 0.593816
vt 0.187500 0.687500
vt 0.250000 0.593816
vt 0.250000 0.687500
vt 0.000000 0.593816
vt 0.000000 0.687500
vt 0.125000 0.687500
vt 0.125000 0.750000
vt 0.187500 0.750000
vt 0.187500 0.687500
vt 0.062500 0.687500
vt 0.125000 0.687500
vt 0.125000 0.750000
vt 0.062500 0.750000
vt 0.062500 0.593816
vt 0.125000 0.593816
vt 0.187500 0.593816
vt 0.187500 0.687500
vt 0.250000 0.593816
vt 0.250000 0.687500
vt 0.000000 0.593816
vt 0.000000 0.687500
vt 0.125000 0.687500
vt 0.125000 0.750000
vt 0.187500 0.750000
vt 0.187500 0.687500
vt 0.062500 0.687500
vt 0.125000 0.687500
vt 0.125000 0.750000
vt 0.062500 0.750000
vt 0.062500 0.593816
vt 0.125000 0.593816
vt 0.187500 0.593816
vt 0.187500 0.687500
vt 0.250000 0.593816
vt 0.250000 0.687500
vt 0.000000 0.593816
vt 0.000000 0.687500
vt 0.125000 0.687500
vt 0.125000 0.750000
vt 0.187500 0.750000
vt 0.187500 0.687500
vt 0.062500 0.687500
vt 0.125000 0.687500
vt 0.125000 0.750000
vt 0.062500 0.750000
vt 0.062500 0.593816
vt 0.125000 0.593816
vt 0.187500 0.593816
vt 0.187500 0.687500
vt 0.250000 0.593816
vt 0.250000 0.687500
vt 0.000000 0.593816
vt 0.000000 0.687500
vn -0.0000 -1.0000 -0.0000
vn 0.0000 1.0000 0.0000
vn 0.7071 -0.0000 0.7071
vn 0.7071 0.0000 -0.7071
vn -0.7071 0.0000 -0.7071
vn -0.7071 -0.0000 0.7071
usemtl 02_-_Default
s 1
f 5/5/2 6/6/2 7/7/2 8/8/2
f 9/9/3 10/10/3 11/11/3 12/12/3
f 5/13/4 8/14/4 10/10/4 9/9/4
f 8/14/5 7/15/5 11/16/5 10/10/5
f 7/15/6 6/17/6 12/18/6 11/16/6
f 6/19/7 5/13/7 9/9/7 12/20/7
f 13/21/2 14/22/2 15/23/2 16/24/2
f 17/25/3 18/26/3 19/27/3 20/28/3
f 13/29/4 16/30/4 18/26/4 17/25/4
f 16/30/5 15/31/5 19/32/5 18/26/5
f 15/31/6 14/33/6 20/34/6 19/32/6
f 14/35/7 13/29/7 17/25/7 20/36/7
f 21/37/2 22/38/2 23/39/2 24/40/2
f 25/41/3 26/42/3 27/43/3 28/44/3
f 21/45/4 24/46/4 26/42/4 25/41/4
f 24/46/5 23/47/5 27/48/5 26/42/5
f 23/47/6 22/49/6 28/50/6 27/48/6
f 22/51/7 21/45/7 25/41/7 28/52/7
f 29/53/2 30/54/2 31/55/2 32/56/2
f 33/57/3 34/58/3 35/59/3 36/60/3
f 29/61/4 32/62/4 34/58/4 33/57/4
f 32/62/5 31/63/5 35/64/5 34/58/5
f 31/63/6 30/65/6 36/66/6 35/64/6
f 30/67/7 29/61/7 33/57/7 36/68/7
f 37/69/2 38/70/2 39/71/2 40/72/2
f 41/73/3 42/74/3 43/75/3 44/76/3
f 37/77/4 40/78/4 42/74/4 41/73/4
f 40/78/5 39/79/5 43/80/5 42/74/5
f 39/79/6 38/81/6 44/82/6 43/80/6
f 38/83/7 37/77/7 41/73/7 44/84/7
f 45/85/2 46/86/2 47/87/2 48/88/2
f 49/89/3 50/90/3 51/91/3 52/92/3
f 45/93/4 48/94/4 50/90/4 49/89/4
f 48/94/5 47/95/5 51/96/5 50/90/5
f 47/95/6 46/97/6 52/98/6 51/96/6
f 46/99/7 45/93/7 49/89/7 52/100/7
